<?xml version="1.0" encoding="utf-8"?>
<!-- Generator: Adobe Illustrator 25.0.0, SVG Export Plug-In . SVG Version: 6.00 Build 0)  -->
<svg version="1.1" id="Calque_1" xmlns:svg="http://www.w3.org/2000/svg"
	 xmlns="http://www.w3.org/2000/svg" xmlns:xlink="http://www.w3.org/1999/xlink" x="0px" y="0px" viewBox="0 0 640 480"
	 style="enable-background:new 0 0 640 480;" xml:space="preserve">
<style type="text/css">
	.st0{fill:#FF0000;}
</style>
<g>
	<g id="layer1">
		<path id="text2160" class="st0" d="M302.1,48.6l7.5,9c-0.7,2.2-2.3,4.6-5,7.4c-1.3,0.8-2,1.7-2,2.5c0,0.3,0.3,1,1,2
			c-43.2,35.6-79.8,68.9-109.9,100.1c40.5,43.8,65.2,68.8,74.3,75.1c-1.7,7.7-5.4,13.6-11,17.7c-2,1.4-4.5,3-7.5,4.9
			c-5.3,3.6-8,5.5-8,5.8v0.4l1.5,4.5c-1.4,0.5-2.5,1.5-3.5,2.9c-3.7,3.6-7.7,6-12,7.4c-1.3,0-3-0.8-5.1-2.5c-1.3-0.8-3-1.8-5-2.9
			c-2-1.1-3-1.7-3-1.7c-0.4-0.3-0.7-0.4-1-0.4c0,0-0.5,0.3-1.5,0.8c-7,7.1-13.4,11.6-19.1,13.6c-1,0-2.3-0.4-4-1.2
			c-10.7-9-22.1-20.8-34.1-35.3c-10-12.3-17.5-21.1-22.6-26.3l-5,5.7l-34.6,37c-4.4,4.7-16.7,18.6-37.2,41.8h-6.5l-9.6-8.6
			c0.7-2.2,1-3.3,1-3.3c0.7-1.6,1-2.4,1-2.4c0-1.6-1-2.5-3-2.5c-2,0-5,0.9-9,2.5c-0.4,0-1.3,0.4-3,1.2c-3.7-1.7-9-7.1-16.1-16.4
			c-2-2.4-3-4.1-3-4.9c0-0.5,0.8-1.8,2.5-3.7c2.3-3,3.5-5.5,3.5-7.4c0-0.5-1.7-3.7-5-9.4c-1.7-4.1-2.5-6.1-2.5-6.1L30,230l54.7-51.7
			c1.3-1.7,2.7-3,4-4.1C67,143.3,49.3,112.7,35.5,82.3c-3-7.4-4.8-12.6-5.5-15.6c4.7-6,10.9-12.1,18.6-18.1c3.3,2.2,5.8,3.9,7.5,4.9
			c1.3,1.9,2.7,2.9,4,2.9c3.3,0,5.5-2,6.5-6.1c1-7.7,5.2-11.6,12.6-11.9c2.3,0,5.5,1.8,9.5,5.3c21.1,28.2,41.4,53.2,60.7,75.1
			c43.5-39.1,79.5-69.3,107.9-90.7c5.7-4.1,8.8-6.1,9.5-6.1c1.7,0,6.7,3.4,15.1,10.2l3,3.3c0,0.5-0.5,1.5-1.5,2.9
			c-0.7,0.5-1,1.1-1,1.6c0,0.8,3,3,9,6.6l7.6-1.6L302.1,48.6L302.1,48.6L302.1,48.6z"/>
	</g>
</g>
</svg>
